<svg xmlns="http://www.w3.org/2000/svg" xmlns:xlink="http://www.w3.org/1999/xlink" width="500" zoomAndPan="magnify" viewBox="0 0 375 374.999991" height="500" preserveAspectRatio="xMidYMid meet" version="1.0"><defs><clipPath id="a7bc1adaa9"><path d="M 130.777344 112 L 193 112 L 193 266 L 130.777344 266 Z M 130.777344 112 " clip-rule="nonzero"/></clipPath><clipPath id="e694237352"><path d="M 176 63.453125 L 223 63.453125 L 223 122 L 176 122 Z M 176 63.453125 " clip-rule="nonzero"/></clipPath></defs><rect x="-37.5" width="450" fill="#ffffff" y="-37.499999" height="449.999989" fill-opacity="1"/><rect x="-37.5" width="450" fill="#fff7e7" y="-37.499999" height="449.999989" fill-opacity="1"/><path fill="#202424" d="M 197.773438 171.449219 L 234.9375 171.449219 L 234.9375 145.347656 L 196.386719 145.347656 L 196.386719 112.78125 L 194.21875 112.78125 C 178.097656 127.675781 187.121094 156 197.773438 171.449219 " fill-opacity="1" fill-rule="evenodd"/><g clip-path="url(#a7bc1adaa9)"><path fill="#202424" d="M 188.070312 112.78125 L 169.347656 112.78125 L 169.347656 145.347656 L 130.796875 145.347656 L 130.796875 171.449219 L 169.347656 171.449219 L 169.347656 265.144531 C 171.671875 262.628906 173.859375 260.132812 175.847656 257.730469 C 181.804688 250.53125 185.972656 244.183594 188.851562 236.742188 C 191.726562 229.296875 193.3125 220.765625 192.667969 212.925781 C 192.023438 205.085938 189.144531 197.941406 185.625 190.945312 C 182.101562 183.949219 177.933594 177.101562 175.253906 169.808594 C 172.574219 162.515625 171.382812 154.777344 171.53125 147.730469 C 171.683594 140.683594 173.171875 134.332031 177.238281 127.289062 C 180.101562 122.328125 184.246094 117.023438 188.070312 112.78125 " fill-opacity="1" fill-rule="evenodd"/></g><path fill="#ffca7b" d="M 179.320312 132.878906 C 176.78125 167.507812 192.820312 171.605469 206.460938 192.90625 C 205.769531 188.835938 203.402344 180.902344 199.539062 174.832031 C 237.5625 190.996094 244.214844 225.910156 205.972656 255.199219 C 209.605469 250.296875 214.863281 238.972656 212.378906 227.960938 C 209.9375 249.125 190.816406 260.933594 172.632812 267.855469 C 172.734375 267.769531 172.828125 267.675781 172.917969 267.578125 C 175.191406 265.113281 177.410156 262.597656 179.546875 260.015625 C 185.171875 253.21875 189.9375 246.292969 193.128906 238.035156 C 196.183594 230.140625 197.875 221.089844 197.179688 212.628906 C 196.492188 204.300781 193.488281 196.730469 189.761719 189.332031 C 186.3125 182.484375 182.203125 175.777344 179.554688 168.574219 C 177.148438 162.023438 175.90625 154.785156 176.054688 147.804688 C 176.171875 142.3125 177.183594 137.59375 179.320312 132.878906 " fill-opacity="1" fill-rule="evenodd"/><g clip-path="url(#e694237352)"><path fill="#ffca7b" d="M 222.632812 89.09375 C 219.738281 84.445312 215.269531 79.78125 209.898438 84.53125 C 205.296875 88.597656 202.804688 87.558594 199.050781 83.195312 C 197.832031 81.777344 196.664062 80.316406 195.136719 78.226562 C 188.5625 69.230469 189.347656 69.644531 179.527344 63.492188 C 177.992188 71.933594 184.328125 74.816406 190.25 80.121094 C 183.316406 76.40625 182.585938 76.183594 178.214844 70.421875 C 177.203125 78.511719 182.285156 79.867188 188.9375 82.746094 C 181.675781 82.261719 180.910156 81.464844 176.902344 76.253906 C 177.285156 83.9375 180.679688 86.289062 188.207031 86.757812 C 182.628906 88.351562 180.851562 87.371094 176.972656 83.621094 C 178.519531 89.265625 179.261719 92.964844 183.171875 95.21875 C 187.660156 97.800781 204.59375 94.53125 194.054688 105.632812 C 189.753906 110.15625 186.375 117.277344 184.40625 121.730469 C 190.253906 112.449219 193.78125 111.746094 203.023438 108.4375 C 208.4375 106.503906 211 104.546875 213.144531 99.8125 C 215.074219 95.558594 213.652344 85.5 222.632812 89.09375 " fill-opacity="1" fill-rule="evenodd"/></g></svg>